<?xml version="1.0"?>
<svg xmlns="http://www.w3.org/2000/svg" id="Capa_1" enable-background="new 0 0 512 512" height="512px" viewBox="0 0 512 512" width="512px" class=""><g><path d="m464.867 0h-385.6c-8.284 0-15 6.716-15 15v33.4h17.133c24.813 0 45 20.187 45 45s-20.187 45-45 45h-17.133v18.4h17.133c24.813 0 45 20.187 45 45s-20.187 45-45 45h-17.133v18.4h17.133c24.813 0 45 20.187 45 45s-20.187 45-45 45h-17.133v18.4h17.133c24.813 0 45 20.187 45 45s-20.187 45-45 45h-17.133v33.4c0 8.284 6.716 15 15 15h385.6c8.284 0 15-6.716 15-15v-482c0-8.284-6.716-15-15-15zm-207.8 335.267h-65.333c-8.284 0-15-6.716-15-15s6.716-15 15-15h65.333c8.284 0 15 6.716 15 15s-6.716 15-15 15zm95.333-64.267h-160.667c-8.284 0-15-6.716-15-15s6.716-15 15-15h160.667c8.284 0 15 6.716 15 15s-6.716 15-15 15zm0-64.267h-160.667c-8.284 0-15-6.716-15-15s6.716-15 15-15h160.667c8.284 0 15 6.716 15 15s-6.716 15-15 15z" data-original="#000000" class="active-path" data-old_color="#000000" fill="#FFFFFF"/><path d="m96.4 418.6c0-8.284-6.716-15-15-15h-34.267c-8.284 0-15 6.716-15 15s6.716 15 15 15h34.267c8.284 0 15-6.716 15-15z" data-original="#000000" class="active-path" data-old_color="#000000" fill="#FFFFFF"/><path d="m47.133 325.2h34.267c8.284 0 15-6.716 15-15s-6.716-15-15-15h-34.267c-8.284 0-15 6.716-15 15s6.716 15 15 15z" data-original="#000000" class="active-path" data-old_color="#000000" fill="#FFFFFF"/><path d="m47.133 216.8h34.267c8.284 0 15-6.716 15-15s-6.716-15-15-15h-34.267c-8.284 0-15 6.716-15 15s6.716 15 15 15z" data-original="#000000" class="active-path" data-old_color="#000000" fill="#FFFFFF"/><path d="m47.133 108.4h34.267c8.284 0 15-6.716 15-15s-6.716-15-15-15h-34.267c-8.284 0-15 6.716-15 15s6.716 15 15 15z" data-original="#000000" class="active-path" data-old_color="#000000" fill="#FFFFFF"/></g> </svg>
