<svg xmlns="http://www.w3.org/2000/svg" width="82.774" height="82.773" viewBox="0 0 82.774 82.773">
  <g id="Airplane_silhouette" transform="matrix(-0.719, 0.695, -0.695, -0.719, 82.774, 42.099)">
    <path id="path3166" d="M.144,48.358l2.409,2.534c1.411,1.411,3.786.921,3.786.921l7.05-.965,3.57,3.494c1.881,1.847,3.58-.979,2.841-1.953l-1.833-2.131,7.592-1.406,2.577,3c2.754,3.292,4.8.326,3.561-1.42l-1.665-2.107,11.407-1.488C51.246,56.28,55.25,60.2,57.831,57.87c2.6-2.341-2-7.007-10.932-16.211l1.622-11.752,2.39,1.992c1.411,1.176,3.916-.71,1.329-3.162l-3.287-3.1,1.387-7.693,2.054,1.579c1.814,1.444,4.017-.466,1.564-3.086L50.7,13.149c-.134-.1,1.065-6.747,1.065-6.747.739-3.258-1.1-4.449-1.1-4.449L48.421,0,39.908,24.047c-.705,2.116-2.493,4.414-5.48,4.141-1.579-.168-5.567-2.86-6.1-3.5L19.09,15.812c-.235-.168,1.42-11.541,1.42-11.541A44.9,44.9,0,0,0,17.583.1L11.733,10.51,8.844,9.166l1.689,2.63L0,17.741,3.95,20.63c1.881-.437,11.743-1.545,11.944-1.444,0,0,8.031,7.964,8.489,8.446,2.654,2.788,3.546,3.829,3.95,5.207s-.284,3.4-4.449,5.955C18.14,42.321.144,48.358.144,48.358Z" transform="translate(0 0)" fill="#fff"/>
  </g>
</svg>
